<?xml version="1.0" standalone="no"?>
<!DOCTYPE svg PUBLIC "-//W3C//DTD SVG 20010904//EN"
 "http://www.w3.org/TR/2001/REC-SVG-20010904/DTD/svg10.dtd">
<svg version="1.0" xmlns="http://www.w3.org/2000/svg"
 width="500.000000pt" height="500.000000pt" viewBox="0 0 500.000000 500.000000"
 preserveAspectRatio="xMidYMid meet">
<metadata>
Created by potrace 1.11, written by Peter Selinger 2001-2013
</metadata>
<g transform="translate(0.000000,500.000000) scale(0.100000,-0.100000)"
fill="#000000" stroke="none">
<path d="M2345 3581 c-97 -28 -163 -68 -239 -144 -96 -98 -144 -194 -155 -317
l-6 -65 -73 -7 c-108 -11 -216 -63 -302 -144 l-35 -33 -630 -3 -630 -3 -60
-31 c-57 -30 -131 -98 -169 -156 -25 -38 -46 -124 -46 -188 0 -118 67 -234
174 -306 96 -64 101 -64 770 -64 602 0 603 0 622 -21 29 -32 122 -92 184 -118
30 -13 86 -26 125 -30 l70 -6 7 -65 c10 -103 35 -167 101 -256 83 -113 201
-188 345 -219 l32 -7 0 52 c0 97 -61 329 -110 414 -11 20 -29 51 -39 70 -11
18 -25 43 -33 56 -12 20 -10 24 16 44 16 11 46 36 67 54 l36 32 138 0 138 0
46 -43 c25 -24 55 -48 65 -54 18 -10 18 -11 -1 -39 -109 -160 -173 -345 -173
-503 0 -45 3 -81 7 -81 4 0 39 10 78 22 137 43 270 152 327 269 29 60 68 189
68 226 0 17 6 23 22 23 86 0 267 76 333 140 l40 39 625 3 625 3 55 23 c129 55
212 164 235 310 7 45 -13 182 -27 182 -4 0 -8 8 -8 18 0 32 -104 136 -172 173
l-63 34 -629 3 -630 3 -50 47 c-64 60 -167 110 -272 131 l-81 16 -11 68 c-6
42 -27 103 -53 158 -76 161 -211 264 -396 304 -33 7 -33 6 -33 -32 0 -79 45
-281 79 -358 41 -92 64 -133 100 -184 24 -33 24 -35 6 -45 -11 -6 -42 -32 -71
-58 l-51 -48 -133 0 -133 0 -51 48 c-29 26 -60 52 -70 57 -17 10 -15 15 21 70
84 129 126 241 148 400 24 172 28 165 -70 136z m-40 -178 c-11 -74 -52 -179
-107 -274 -54 -92 -65 -101 -111 -88 -34 9 -37 13 -37 48 0 50 34 157 65 201
49 71 154 160 189 160 4 0 5 -21 1 -47z m451 19 c52 -38 128 -121 149 -163 24
-45 45 -125 45 -171 0 -33 -3 -38 -27 -44 -16 -3 -34 -7 -41 -10 -33 -10 -134
177 -178 331 -26 93 -15 105 52 57z m-609 -1474 c53 -57 144 -260 157 -351 7
-48 7 -49 -16 -42 -49 16 -150 111 -186 177 -28 49 -52 133 -52 178 0 30 5 38
28 47 40 16 46 15 69 -9z m772 11 c29 -10 31 -14 31 -60 0 -45 -9 -74 -49
-159 -30 -65 -161 -190 -199 -190 -39 0 45 244 121 354 51 73 48 71 96 55z"/>
</g>
</svg>
